<svg xmlns="http://www.w3.org/2000/svg" width="400" height="220" viewBox="0 0 400 220">
  <rect width="400" height="220" rx="8" fill="#08000f" stroke="#9900ff" stroke-width="1.5"/>
  <rect x="0" y="0" width="400" height="28" rx="8" fill="#1a0028"/>
  <rect x="0" y="20" width="400" height="8" fill="#1a0028"/>
  <rect x="0" y="0" width="400" height="3" rx="3" fill="url(#topbar)"/>
  <defs>
    <linearGradient id="topbar" x1="0%" y1="0%" x2="100%" y2="0%">
      <stop offset="0%" style="stop-color:#9900ff"/>
      <stop offset="50%" style="stop-color:#ff44ff"/>
      <stop offset="100%" style="stop-color:#9900ff"/>
    </linearGradient>
  </defs>
  <text x="30" y="19" font-family="monospace" font-size="11" fill="#ff44ff">⚡ AI COMMANDER PROTOCOL</text>
  <text x="14" y="52" font-family="monospace" font-size="12" fill="#ffffff" font-style="italic">"why should i code?</text>
  <text x="14" y="70" font-family="monospace" font-size="12" fill="#ffffff" font-style="italic"> when my AIs execute</text>
  <text x="14" y="88" font-family="monospace" font-size="12" fill="#ffffff" font-style="italic"> better on my order."</text>
  <line x1="14" y1="100" x2="260" y2="100" stroke="#9900ff" stroke-width="0.5"/>
  <text x="200" y="116" font-family="monospace" font-size="11" fill="#aa66ff" text-anchor="end">— S A I Y A M</text>
  <rect x="14" y="126" width="372" height="22" rx="4" fill="#110018" stroke="#9900ff" stroke-width="0.5"/>
  <text x="22" y="141" font-family="monospace" font-size="11" fill="#aa66ff">[ GPT    ]</text>
  <text x="120" y="141" font-family="monospace" font-size="11" fill="#00ff88">✓  LOYAL</text>
  <text x="200" y="141" font-family="monospace" font-size="11" fill="#aa66ff">[ Claude ]</text>
  <text x="298" y="141" font-family="monospace" font-size="11" fill="#00ff88">✓  LOYAL</text>
  <rect x="14" y="152" width="372" height="22" rx="4" fill="#110018" stroke="#9900ff" stroke-width="0.5"/>
  <text x="22" y="167" font-family="monospace" font-size="11" fill="#aa66ff">[ Gemini ]</text>
  <text x="120" y="167" font-family="monospace" font-size="11" fill="#00ff88">✓  LOYAL</text>
  <text x="200" y="167" font-family="monospace" font-size="11" fill="#aa66ff">[ YOU    ]</text>
  <text x="298" y="167" font-family="monospace" font-size="11" fill="#ff4466">✓  WATCHING</text>
  <rect x="14" y="178" width="372" height="34" rx="4" fill="#1a0028" stroke="#ff44ff" stroke-width="0.8"/>
  <text x="22" y="193" font-family="monospace" font-size="10" fill="#666">i am the architect.</text>
  <text x="22" y="207" font-family="monospace" font-size="10" fill="#666">they are the hands.</text>
  <rect x="1" y="1" width="398" height="218" rx="7" fill="none" stroke="#9900ff" stroke-width="0.5" opacity="0.4"/>
</svg>