<svg xmlns="http://www.w3.org/2000/svg" width="820" height="240" viewBox="0 0 820 240">
  <rect width="820" height="240" rx="8" fill="#08000f" stroke="#9900ff" stroke-width="1.5"/>
  <rect x="0" y="0" width="820" height="28" rx="8" fill="#130020"/>
  <rect x="0" y="20" width="820" height="8" fill="#130020"/>
  <text x="14" y="19" font-family="monospace" font-size="11" fill="#ff44ff">SAIYAM OS v3.0 — INTERNAL DIAGNOSTICS</text>
  <line x1="14" y1="34" x2="806" y2="34" stroke="#9900ff" stroke-width="0.5"/>
  <text x="14" y="56" font-family="monospace" font-size="11" fill="#cc77ff">CREATIVITY</text>
  <rect x="135" y="45" width="540" height="10" rx="5" fill="#1a0028"/>
  <rect x="135" y="45" width="540" height="10" rx="5" fill="url(#full)"/>
  <text x="686" y="56" font-family="monospace" font-size="11" fill="#ff44ff">MAXED OUT</text>
  <text x="14" y="78" font-family="monospace" font-size="11" fill="#cc77ff">CURIOSITY</text>
  <rect x="135" y="67" width="540" height="10" rx="5" fill="#1a0028"/>
  <rect x="135" y="67" width="540" height="10" rx="5" fill="url(#full)"/>
  <text x="686" y="78" font-family="monospace" font-size="11" fill="#ff44ff">∞ INFINITE</text>
  <text x="14" y="100" font-family="monospace" font-size="11" fill="#cc77ff">AI CONTROL</text>
  <rect x="135" y="89" width="540" height="10" rx="5" fill="#1a0028"/>
  <rect x="135" y="89" width="540" height="10" rx="5" fill="url(#danger)"/>
  <text x="686" y="100" font-family="monospace" font-size="11" fill="#ff44ff">ABSOLUTE</text>
  <text x="14" y="122" font-family="monospace" font-size="11" fill="#cc77ff">VISION</text>
  <rect x="135" y="111" width="540" height="10" rx="5" fill="#1a0028"/>
  <rect x="135" y="111" width="378" height="10" rx="5" fill="url(#mid)"/>
  <text x="686" y="122" font-family="monospace" font-size="11" fill="#aa55ff">EXPANDING</text>
  <text x="14" y="144" font-family="monospace" font-size="11" fill="#cc77ff">FOCUS</text>
  <rect x="135" y="133" width="540" height="10" rx="5" fill="#1a0028"/>
  <rect x="135" y="133" width="270" height="10" rx="5" fill="url(#mid)"/>
  <text x="686" y="144" font-family="monospace" font-size="11" fill="#aa55ff">UNSTABLE</text>
  <text x="14" y="166" font-family="monospace" font-size="11" fill="#cc77ff">SLEEP</text>
  <rect x="135" y="155" width="540" height="10" rx="5" fill="#1a0028"/>
  <rect x="135" y="155" width="65" height="10" rx="5" fill="url(#low)"/>
  <text x="686" y="166" font-family="monospace" font-size="11" fill="#ff4466">CORRUPTED</text>
  <text x="14" y="188" font-family="monospace" font-size="11" fill="#cc77ff">REALITY LINK</text>
  <rect x="135" y="177" width="540" height="10" rx="5" fill="#1a0028"/>
  <rect x="135" y="177" width="43" height="10" rx="5" fill="url(#low)"/>
  <text x="686" y="188" font-family="monospace" font-size="11" fill="#ff4466">WEAK</text>
  <line x1="14" y1="204" x2="806" y2="204" stroke="#9900ff" stroke-width="0.5" stroke-dasharray="4,4"/>
  <text x="14" y="222" font-family="monospace" font-size="10" fill="#554455">SUGGESTION: touch grass</text>
  <text x="200" y="222" font-family="monospace" font-size="10" fill="#666">›</text>
  <text x="214" y="222" font-family="monospace" font-size="10" fill="#ff44ff">RESPONSE: no.</text>
  <defs>
    <linearGradient id="full" x1="0%" y1="0%" x2="100%" y2="0%">
      <stop offset="0%" style="stop-color:#6600cc"/>
      <stop offset="100%" style="stop-color:#ff44ff"/>
    </linearGradient>
    <linearGradient id="danger" x1="0%" y1="0%" x2="100%" y2="0%">
      <stop offset="0%" style="stop-color:#aa0066"/>
      <stop offset="100%" style="stop-color:#ff0088"/>
    </linearGradient>
    <linearGradient id="mid" x1="0%" y1="0%" x2="100%" y2="0%">
      <stop offset="0%" style="stop-color:#440088"/>
      <stop offset="100%" style="stop-color:#9900ff"/>
    </linearGradient>
    <linearGradient id="low" x1="0%" y1="0%" x2="100%" y2="0%">
      <stop offset="0%" style="stop-color:#cc0000"/>
      <stop offset="100%" style="stop-color:#ff4444"/>
    </linearGradient>
  </defs>
</svg>