<svg xmlns="http://www.w3.org/2000/svg" width="400" height="220" viewBox="0 0 400 220">
  <rect width="400" height="220" rx="8" fill="#08000f" stroke="#9900ff" stroke-width="1.5"/>
  <rect x="0" y="0" width="400" height="28" rx="8" fill="#130020"/>
  <rect x="0" y="20" width="400" height="8" fill="#130020"/>
  <text x="14" y="19" font-family="monospace" font-size="11" fill="#ff44ff">SYSTEM / identity.log</text>
  <circle cx="374" cy="14" r="5" fill="#9900ff" opacity="0.7"/>
  <circle cx="358" cy="14" r="5" fill="#ff44ff" opacity="0.4"/>
  <circle cx="342" cy="14" r="5" fill="#440066" opacity="0.8"/>
  <text x="14" y="52" font-family="monospace" font-size="11" fill="#ff44ff">operator</text>
  <text x="100" y="52" font-family="monospace" font-size="11" fill="#666">:</text>
  <text x="115" y="52" font-family="monospace" font-size="11" fill="#ffffff">SAIYAM</text>
  <text x="14" y="70" font-family="monospace" font-size="11" fill="#ff44ff">class</text>
  <text x="100" y="70" font-family="monospace" font-size="11" fill="#666">:</text>
  <text x="115" y="70" font-family="monospace" font-size="11" fill="#ffffff">Creative Developer</text>
  <text x="14" y="88" font-family="monospace" font-size="11" fill="#ff44ff">domain</text>
  <text x="100" y="88" font-family="monospace" font-size="11" fill="#666">:</text>
  <text x="115" y="88" font-family="monospace" font-size="11" fill="#ffffff">AI · Exp. Systems</text>
  <text x="115" y="104" font-family="monospace" font-size="11" fill="#ffffff">Cinematic Interfaces</text>
  <text x="14" y="122" font-family="monospace" font-size="11" fill="#ff44ff">location</text>
  <text x="100" y="122" font-family="monospace" font-size="11" fill="#666">:</text>
  <text x="115" y="122" font-family="monospace" font-size="11" fill="#ffffff">code + imagination</text>
  <text x="14" y="140" font-family="monospace" font-size="11" fill="#ff44ff">philosophy</text>
  <text x="100" y="140" font-family="monospace" font-size="11" fill="#666">:</text>
  <text x="115" y="140" font-family="monospace" font-size="11" fill="#ffffff">dangerous · mysterious</text>
  <text x="115" y="156" font-family="monospace" font-size="11" fill="#ffffff">· alive</text>
  <text x="14" y="174" font-family="monospace" font-size="11" fill="#ff44ff">status</text>
  <text x="100" y="174" font-family="monospace" font-size="11" fill="#666">:</text>
  <text x="115" y="174" font-family="monospace" font-size="11" fill="#00ff88">ALWAYS BUILDING</text>
  <text x="14" y="192" font-family="monospace" font-size="11" fill="#ff44ff">threat_lvl</text>
  <text x="100" y="192" font-family="monospace" font-size="11" fill="#666">:</text>
  <text x="115" y="192" font-family="monospace" font-size="11" fill="#ffffff">undefined</text>
  <text x="214" y="192" font-family="monospace" font-size="11" fill="#ff44ff">
    <animate attributeName="opacity" values="1;0;1" dur="1.2s" repeatCount="indefinite"/>_
  </text>
  <rect x="1" y="1" width="398" height="218" rx="7" fill="none" stroke="#9900ff" stroke-width="0.5" opacity="0.4"/>
</svg>